<svg width="52" height="49" viewBox="0 0 52 49" fill="none" xmlns="http://www.w3.org/2000/svg">
<path d="M18.6306 0.5L22 9.47561C18.4324 10.6463 15.6577 12.7276 13.6757 15.7195C11.5616 18.5813 10.5045 22.0285 10.5045 26.061H21.8018V48.5H0V26.4512C0 19.5569 1.51952 14.0935 4.55856 10.061C7.5976 5.89837 12.2883 2.71138 18.6306 0.5Z" fill="#4E5255"/>
<path d="M48.6306 0.5L52 9.47561C48.4324 10.6463 45.6577 12.7276 43.6757 15.7195C41.5616 18.5813 40.5045 22.0285 40.5045 26.061H51.8018V48.5H30V26.4512C30 19.5569 31.5195 14.0935 34.5586 10.061C37.5976 5.89837 42.2883 2.71138 48.6306 0.5Z" fill="#4E5255"/>
</svg>
