<svg width="45" height="45" viewBox="0 0 45 45" fill="none" xmlns="http://www.w3.org/2000/svg">
<rect width="45" height="45" rx="10" fill="#009D77"/>
<g clip-path="url(#clip0_2_6)">
<path d="M33 19.7733V30.3333C33 30.5764 32.9034 30.8096 32.7315 30.9815C32.5596 31.1534 32.3264 31.25 32.0833 31.25C31.8402 31.25 31.6071 31.1534 31.4351 30.9815C31.2632 30.8096 31.1667 30.5764 31.1667 30.3333V22.7727L24.3833 26.014C23.6681 26.4362 22.8516 26.6561 22.0211 26.6502C21.1501 26.6515 20.295 26.4175 19.5461 25.9727L12.7811 22.7525C12.2493 22.4665 11.8037 22.0435 11.4906 21.5272C11.1775 21.011 11.0082 20.4204 11.0004 19.8166C10.9925 19.2129 11.1464 18.6181 11.4459 18.0938C11.7455 17.5696 12.1799 17.1351 12.7041 16.8354C12.7288 16.8207 12.7554 16.807 12.7811 16.7942L19.6167 13.5327C20.3546 13.1089 21.1922 12.8893 22.0432 12.8965C22.8942 12.9038 23.7279 13.1376 24.4585 13.5739L31.2189 16.7942C31.7524 17.0893 32.1981 17.5204 32.511 18.0437C32.8238 18.567 32.9925 19.1637 33 19.7733ZM22.0202 28.4817C20.8474 28.4843 19.6947 28.1769 18.6789 27.5907L14.6667 25.6757V28.1507C14.6672 29.1293 14.9805 30.0821 15.5608 30.87C16.1411 31.6579 16.9581 32.2398 17.8924 32.5306C19.2274 32.9139 20.6112 33.1001 22 33.0833C23.389 33.0989 24.7728 32.9115 26.1076 32.5269C27.0419 32.2361 27.8589 31.6543 28.4392 30.8663C29.0195 30.0784 29.3328 29.1256 29.3333 28.1471V25.6803L25.2459 27.6328C24.2648 28.1965 23.1517 28.49 22.0202 28.4835V28.4817Z" fill="white"/>
</g>
<defs>
<clipPath id="clip0_2_6">
<rect width="22" height="22" fill="white" transform="translate(11 12)"/>
</clipPath>
</defs>
</svg>
