<svg width="107" height="124" viewBox="0 0 107 124" fill="none" xmlns="http://www.w3.org/2000/svg">
<path d="M45.7061 116.1C49.8352 112.759 51.9962 109.011 53.3089 103.874C53.7972 103.231 53.932 104.477 54.005 104.808C54.5507 107.771 52.7911 111.195 51.2294 113.806C58.4541 109.301 66.0787 102.73 69.2381 94.7469C73.0825 85.5708 71.6214 73.1985 62.8806 67.4226C58.0819 71.826 51.8221 75.5468 45.1231 75.5753C36.5002 74.7985 36.7996 65.6053 44.2119 61.9512C50.2241 58.9887 57.5196 59.6375 63.4815 62.5496C80.1159 42.2289 68.2101 16.9376 44.2618 10.3515C44.232 10.3445 44.204 10.3316 44.1793 10.3134C44.1547 10.2953 44.1341 10.2723 44.1187 10.2459C44.1032 10.2195 44.0933 10.1902 44.0896 10.1598C44.0859 10.1295 44.0884 10.0987 44.097 10.0693C44.1034 10.0402 44.1156 10.0126 44.1329 9.98815C44.1501 9.96374 44.1721 9.94302 44.1974 9.92719C44.2228 9.91136 44.251 9.90074 44.2805 9.89595C44.31 9.89116 44.3402 9.8923 44.3693 9.89931C69.7703 15.7182 82.4362 42.3986 65.9522 64.0434C72.3677 68.4308 75.6329 76.3756 75.3991 83.9852C75.1485 97.6255 63.9686 109.777 51.9011 114.988C53.2504 115.407 54.715 115.3 56.062 115.711C57.6383 116.194 59.9696 118.123 58.8153 118.345C57.2977 117.911 55.7489 117.594 54.1828 117.397C52.6029 117.17 50.8115 116.962 49.2237 116.81L48.9211 116.788L45.8588 116.53C45.8101 116.527 45.7633 116.51 45.7243 116.481C45.6853 116.452 45.6558 116.412 45.6394 116.366C45.6231 116.32 45.6208 116.27 45.6326 116.223C45.6445 116.176 45.67 116.133 45.7061 116.1ZM50.9064 64.3935C41.9376 64.3292 38.6826 73.3178 47.8513 72.008C52.3717 71.019 56.5778 68.9287 60.0957 65.9227C57.1906 64.7144 54.0463 64.1912 50.9064 64.3935Z" fill="#011813"/>
<path d="M74.8044 15.7219C74.7739 15.7281 74.7453 15.7419 74.7215 15.7619C74.6976 15.782 74.6792 15.8077 74.6679 15.8368C74.6566 15.8658 74.6527 15.8972 74.6567 15.9282C74.6607 15.9591 74.6724 15.9885 74.6907 16.0137C78.0001 20.6353 78.5771 27.3607 76.5572 31.9819C76.5385 32.0231 76.5363 32.0699 76.551 32.1127C76.5657 32.1556 76.5962 32.1912 76.6363 32.2123C76.6766 32.2331 76.7228 32.24 76.7675 32.2318C76.8122 32.2237 76.8529 32.2009 76.8833 32.1671C80.847 27.7206 78.7342 19.9493 75.1357 15.844C75.0949 15.7967 75.0421 15.7614 74.9829 15.7416C74.9237 15.7219 74.8602 15.7185 74.7992 15.7318L74.8044 15.7219Z" fill="#011813"/>
<path d="M34.5813 55.7673C32.7082 58.5211 35.4461 62.2932 38.6038 62.1932C38.6251 62.1931 38.6458 62.1859 38.6625 62.1726C38.6791 62.1593 38.6908 62.1408 38.6956 62.12C38.7004 62.0993 38.6981 62.0775 38.6889 62.0582C38.6798 62.039 38.6644 62.0234 38.6453 62.014C36.2574 60.7495 34.4633 58.6367 34.7537 55.8335C34.757 55.8121 34.7529 55.7903 34.7421 55.7716C34.7313 55.7529 34.7144 55.7385 34.6942 55.7308C34.6741 55.723 34.6519 55.7224 34.6313 55.7291C34.6108 55.7357 34.5931 55.7492 34.5813 55.7673Z" fill="#011813"/>
<path d="M73.6006 14.3732C73.7442 14.1511 73.7996 13.8835 73.7561 13.6228C73.7295 13.4286 73.645 13.247 73.5136 13.1015C73.3862 12.9612 73.2191 12.8628 73.0345 12.8195C72.7843 12.7599 72.5218 12.7789 72.2829 12.874C72.2298 13.1116 72.2257 13.3575 72.271 13.5967C72.3006 13.7578 72.3747 13.9073 72.485 14.0285C72.5952 14.1496 72.7371 14.2375 72.8947 14.2821C73.1248 14.3442 73.3623 14.3748 73.6006 14.3732Z" fill="#011813"/>
<path d="M40.3383 62.6921C40.3231 62.6871 40.3068 62.6871 40.2917 62.692C40.2765 62.697 40.2633 62.7066 40.254 62.7195C40.2447 62.7325 40.2398 62.748 40.2399 62.7639C40.2401 62.7799 40.2453 62.7953 40.2548 62.8081C40.3529 62.9463 40.4783 63.063 40.6232 63.1509C40.8199 63.2686 41.0373 63.3475 41.2637 63.3833C41.4892 63.4189 41.7195 63.4095 41.9414 63.3556C42.1066 63.3177 42.2623 63.2461 42.3985 63.1452C42.4104 63.1355 42.4191 63.1226 42.4237 63.108C42.4282 63.0934 42.4284 63.0777 42.4241 63.063C42.4198 63.0483 42.4112 63.0352 42.3995 63.0254C42.3878 63.0155 42.3735 63.0093 42.3582 63.0076C42.1981 63.0014 42.0543 62.9881 41.9106 62.9748C41.7159 62.9566 41.5265 62.9285 41.3371 62.9005C41.1477 62.8725 40.9609 62.8395 40.7644 62.7952C40.6284 62.7672 40.4913 62.7354 40.3383 62.6921Z" fill="#011813"/>
<path d="M67.6036 75.5957C66.5426 79.9076 63.4394 85.2749 59.765 87.8163C59.7558 87.8211 59.7489 87.8292 59.7457 87.8391C59.7426 87.8489 59.7435 87.8596 59.7482 87.8687C59.7529 87.8779 59.7611 87.8848 59.7709 87.888C59.7808 87.8911 59.7914 87.8902 59.8006 87.8855C64.0446 86.2741 67.6838 80.0846 67.6791 75.6074C67.6788 75.5983 67.6754 75.5896 67.6694 75.5829C67.6634 75.5761 67.6552 75.5716 67.6462 75.5702C67.6373 75.5688 67.6281 75.5706 67.6203 75.5753C67.6126 75.5799 67.6067 75.5871 67.6036 75.5957Z" fill="#011813"/>
</svg>
